<svg version="1.1" id="Layer_1" xmlns="http://www.w3.org/2000/svg" xmlns:xlink="http://www.w3.org/1999/xlink" x="0px" y="0px"
	 width="100%" viewBox="0 0 1000 1000" enable-background="new 0 0 1000 1000" xml:space="preserve">
<path fill="#000000" opacity="0.000000" stroke="none" 
	d="
M884.000000,1001.000000 
	C589.333313,1001.000000 295.166656,1001.000000 1.000000,1001.000000 
	C1.000000,667.666687 1.000000,334.333344 1.000000,1.000000 
	C334.333344,1.000000 667.666687,1.000000 1001.000000,1.000000 
	C1001.000000,334.333344 1001.000000,667.666687 1001.000000,1001.000000 
	C962.166687,1001.000000 923.333313,1001.000000 884.000000,1001.000000 
M462.022919,531.016052 
	C464.923859,531.016052 467.824768,531.016052 471.125977,531.016052 
	C471.125977,527.301025 471.125977,524.203613 472.022919,521.016052 
	C474.923828,521.016052 477.824707,521.016052 481.126099,521.016052 
	C481.126099,517.303955 481.126099,514.205200 482.022980,511.016083 
	C484.923889,511.016083 487.824768,511.016083 491.126099,511.016083 
	C491.126099,507.301208 491.126099,504.203857 492.022980,501.016083 
	C494.923889,501.016083 497.824768,501.016083 501.126099,501.016083 
	C501.126099,497.301208 501.126099,494.203857 502.022980,491.016083 
	C504.923889,491.016083 507.824768,491.016083 511.126099,491.016083 
	C511.126099,487.301208 511.126099,484.203857 512.023010,481.016083 
	C514.923889,481.016083 517.824707,481.016083 521.126831,481.016083 
	C521.126831,477.301453 521.126831,474.204224 522.023621,471.016174 
	C524.944641,471.016174 527.865601,471.016174 530.939209,471.016174 
	C530.939209,467.191803 530.939209,464.053558 531.861084,460.987183 
	C534.754333,460.987183 537.647644,460.987183 540.939209,460.987183 
	C540.939209,457.352234 540.939209,454.133759 541.861206,450.987183 
	C544.792419,450.987183 547.723572,450.987183 550.696350,450.987183 
	C550.696350,447.395172 550.696350,444.346039 550.696350,441.331482 
	C547.333923,441.331482 544.283325,441.331482 541.081055,441.331482 
	C541.081055,444.793427 541.081055,447.925354 540.154236,451.008881 
	C537.141724,451.008881 534.129211,451.008881 531.081055,451.008881 
	C531.081055,454.869049 531.081055,457.963196 530.154053,461.008881 
	C527.234558,461.008881 524.315063,461.008881 521.280151,461.008881 
	C521.280151,464.745331 521.280151,467.993195 520.304016,471.034851 
	C517.354675,471.034851 514.405334,471.034851 511.279388,471.034851 
	C511.279388,474.705261 511.279388,477.972900 510.303345,481.034790 
	C507.354156,481.034790 504.404938,481.034790 501.279388,481.034790 
	C501.279388,484.705414 501.279388,487.972961 500.303345,491.034790 
	C497.354156,491.034790 494.404938,491.034790 491.279388,491.034790 
	C491.279388,494.705414 491.279388,497.972961 490.303345,501.034790 
	C487.354156,501.034790 484.404938,501.034790 481.279388,501.034790 
	C481.279388,504.705414 481.279388,507.972961 480.303345,511.034790 
	C477.354187,511.034790 474.405029,511.034790 471.279236,511.034790 
	C471.279236,514.705566 471.279236,517.972900 470.303284,521.034790 
	C467.354126,521.034790 464.404999,521.034790 461.279236,521.034790 
	C461.279236,524.705566 461.279236,527.972900 460.303467,531.034790 
	C457.255249,531.034790 454.207062,531.034790 451.062500,531.034790 
	C451.062500,534.849487 451.062500,537.967957 450.140411,541.013062 
	C447.200684,541.013062 444.260956,541.013062 440.843719,541.013062 
	C440.843719,544.626404 440.843719,547.698914 440.843719,551.241455 
	C437.279419,551.241455 434.215027,551.241455 430.850189,551.241455 
	C430.850189,554.683838 430.850189,557.626099 430.850189,561.058228 
	C427.472290,561.058228 424.407288,561.058228 420.856873,561.058228 
	C420.856873,564.611938 420.856873,567.685791 420.856873,571.228088 
	C417.296875,571.228088 414.228149,571.228088 410.863556,571.228088 
	C410.863556,574.669983 410.863556,577.612305 410.863556,581.044861 
	C407.493652,581.044861 404.417877,581.044861 400.870239,581.044861 
	C400.870239,584.597595 400.870239,587.671204 400.870239,591.214722 
	C397.307556,591.214722 394.242493,591.214722 390.876923,591.214722 
	C390.876923,594.656189 390.876923,597.598450 390.876923,601.031494 
	C387.507782,601.031494 384.431488,601.031494 380.883606,601.031494 
	C380.883606,604.588379 380.883606,607.652649 380.883606,611.201294 
	C377.324677,611.201294 374.255737,611.201294 370.712280,611.201294 
	C370.712280,614.763000 370.712280,617.825562 370.712280,621.191467 
	C367.265472,621.191467 364.318909,621.191467 360.896973,621.191467 
	C360.896973,624.574463 360.896973,627.638855 360.896973,631.187927 
	C357.339874,631.187927 354.268402,631.187927 350.727173,631.187927 
	C350.727173,634.750977 350.727173,637.816345 350.727173,641.181274 
	C347.281586,641.181274 344.334290,641.181274 340.910400,641.181274 
	C340.910400,644.553894 340.910400,647.628479 340.910400,651.174561 
	C337.351013,651.174561 334.283905,651.174561 330.740540,651.174561 
	C330.740540,654.736694 330.740540,657.802673 330.740540,661.167847 
	C327.295929,661.167847 324.348663,661.167847 320.923767,661.167847 
	C320.923767,664.538635 320.923767,667.610291 320.923767,671.161194 
	C317.369415,671.161194 314.299866,671.161194 310.753967,671.161194 
	C310.753967,674.722351 310.753967,677.788635 310.753967,681.154541 
	C307.310089,681.154541 304.362885,681.154541 300.937134,681.154541 
	C300.937134,684.532593 300.937134,687.597534 300.937134,691.146301 
	C297.377808,691.146301 294.312775,691.146301 291.076935,691.146301 
	C291.076935,694.784485 291.076935,697.926025 290.151306,701.010315 
	C287.217102,701.010315 284.282898,701.010315 281.309326,701.010315 
	C281.309326,707.937317 281.309326,714.314575 281.309326,720.670166 
	C288.006012,720.670166 294.388397,720.670166 300.932312,720.670166 
	C300.932312,717.202148 300.932312,714.062683 301.855560,710.988403 
	C304.797455,710.988403 307.739349,710.988403 311.161438,710.988403 
	C311.161438,707.365845 311.161438,704.295776 311.161438,700.747925 
	C314.730469,700.747925 317.796631,700.747925 321.165802,700.747925 
	C321.165802,697.300537 321.165802,694.356384 321.165802,690.920410 
	C324.548981,690.920410 327.615601,690.920410 331.170013,690.920410 
	C331.170013,687.356995 331.170013,684.287659 331.170013,680.732910 
	C334.733612,680.732910 337.794708,680.732910 341.168152,680.732910 
	C341.168152,673.951477 341.168152,667.677185 341.168152,660.910400 
	C344.562317,660.910400 347.627472,660.910400 351.180145,660.910400 
	C351.180145,657.348816 351.180145,654.276062 351.180145,650.729431 
	C354.748627,650.729431 357.814850,650.729431 361.184265,650.729431 
	C361.184265,647.279175 361.184265,644.329956 361.184265,640.901978 
	C364.568237,640.901978 367.634644,640.901978 371.188416,640.901978 
	C371.188416,637.336975 371.188416,634.268738 371.188416,630.720581 
	C374.755951,630.720581 377.821503,630.720581 381.191315,630.720581 
	C381.191315,627.269653 381.191315,624.320679 381.191315,620.893677 
	C384.576874,620.893677 387.643158,620.893677 391.196655,620.893677 
	C391.196655,617.328003 391.196655,614.260254 391.196655,610.710632 
	C394.762573,610.710632 397.825897,610.710632 401.196167,610.710632 
	C401.196167,607.260132 401.196167,604.314087 401.196167,600.885437 
	C404.585480,600.885437 407.651672,600.885437 411.204956,600.885437 
	C411.204956,597.319031 411.204956,594.251648 411.204956,590.881287 
	C414.650757,590.881287 417.594788,590.881287 421.032410,590.881287 
	C421.032410,587.500244 421.032410,584.432922 421.032410,580.877136 
	C424.594116,580.877136 427.660217,580.877136 431.213196,580.877136 
	C431.213196,577.310059 431.213196,574.243042 431.213196,570.873047 
	C434.659302,570.873047 437.603363,570.873047 441.040741,570.873047 
	C441.040741,567.499146 441.040741,564.421265 441.040741,560.864624 
	C444.598724,560.864624 447.666870,560.864624 450.920746,560.864624 
	C450.920746,553.888550 450.920746,547.416443 451.846985,540.991333 
	C454.783142,540.991333 457.719299,540.991333 461.125977,540.991333 
	C461.125977,537.343628 461.125977,534.224915 462.022919,531.016052 
z"/>
<path fill="#A1A1A1" opacity="1.000000" stroke="none" 
	d="
M450.920746,540.944336 
	C450.920746,547.416443 450.920746,553.888550 450.920746,560.864624 
	C447.666870,560.864624 444.598724,560.864624 441.040741,560.864624 
	C441.040741,564.421265 441.040741,567.499146 441.040741,570.873047 
	C437.603363,570.873047 434.659302,570.873047 431.213196,570.873047 
	C431.213196,574.243042 431.213196,577.310059 431.213196,580.877136 
	C427.660217,580.877136 424.594116,580.877136 421.032410,580.877136 
	C421.032410,584.432922 421.032410,587.500244 421.032410,590.881287 
	C417.594788,590.881287 414.650757,590.881287 411.204956,590.881287 
	C411.204956,594.251648 411.204956,597.319031 411.204956,600.885437 
	C407.651672,600.885437 404.585480,600.885437 401.196167,600.885437 
	C401.196167,604.314087 401.196167,607.260132 401.196167,610.710632 
	C397.825897,610.710632 394.762573,610.710632 391.196655,610.710632 
	C391.196655,614.260254 391.196655,617.328003 391.196655,620.893677 
	C387.643158,620.893677 384.576874,620.893677 381.191315,620.893677 
	C381.191315,624.320679 381.191315,627.269653 381.191315,630.720581 
	C377.821503,630.720581 374.755951,630.720581 371.188416,630.720581 
	C371.188416,634.268738 371.188416,637.336975 371.188416,640.901978 
	C367.634644,640.901978 364.568237,640.901978 361.184265,640.901978 
	C361.184265,644.329956 361.184265,647.279175 361.184265,650.729431 
	C357.814850,650.729431 354.748627,650.729431 351.180145,650.729431 
	C351.180145,654.276062 351.180145,657.348816 351.180145,660.910400 
	C347.627472,660.910400 344.562317,660.910400 341.168152,660.910400 
	C341.168152,667.677185 341.168152,673.951477 341.168152,680.732910 
	C337.794708,680.732910 334.733612,680.732910 331.170013,680.732910 
	C331.170013,684.287659 331.170013,687.356995 331.170013,690.920410 
	C327.615601,690.920410 324.548981,690.920410 321.165802,690.920410 
	C321.165802,694.356384 321.165802,697.300537 321.165802,700.747925 
	C317.796631,700.747925 314.730469,700.747925 311.161438,700.747925 
	C311.161438,704.295776 311.161438,707.365845 311.161438,710.988403 
	C307.739349,710.988403 304.797455,710.988403 301.428192,710.992554 
	C301.000824,710.996704 301.069794,711.069824 301.040161,710.607910 
	C301.010559,707.135437 301.010559,704.124939 301.010559,700.930176 
	C297.120697,700.930176 294.025452,700.930176 290.966797,700.964600 
	C291.003387,700.999084 291.076935,701.067566 291.076935,701.067566 
	C291.076935,697.926025 291.076935,694.784485 291.076935,691.146301 
	C294.312775,691.146301 297.377808,691.146301 300.937134,691.146301 
	C300.937134,687.597534 300.937134,684.532593 300.937134,681.154541 
	C304.362885,681.154541 307.310089,681.154541 310.753967,681.154541 
	C310.753967,677.788635 310.753967,674.722351 310.753967,671.161194 
	C314.299866,671.161194 317.369415,671.161194 320.923767,671.161194 
	C320.923767,667.610291 320.923767,664.538635 320.923767,661.167847 
	C324.348663,661.167847 327.295929,661.167847 330.740540,661.167847 
	C330.740540,657.802673 330.740540,654.736694 330.740540,651.174561 
	C334.283905,651.174561 337.351013,651.174561 340.910400,651.174561 
	C340.910400,647.628479 340.910400,644.553894 340.910400,641.181274 
	C344.334290,641.181274 347.281586,641.181274 350.727173,641.181274 
	C350.727173,637.816345 350.727173,634.750977 350.727173,631.187927 
	C354.268402,631.187927 357.339874,631.187927 360.896973,631.187927 
	C360.896973,627.638855 360.896973,624.574463 360.896973,621.191467 
	C364.318909,621.191467 367.265472,621.191467 370.712280,621.191467 
	C370.712280,617.825562 370.712280,614.763000 370.712280,611.201294 
	C374.255737,611.201294 377.324677,611.201294 380.883606,611.201294 
	C380.883606,607.652649 380.883606,604.588379 380.883606,601.031494 
	C384.431488,601.031494 387.507782,601.031494 390.876923,601.031494 
	C390.876923,597.598450 390.876923,594.656189 390.876923,591.214722 
	C394.242493,591.214722 397.307556,591.214722 400.870239,591.214722 
	C400.870239,587.671204 400.870239,584.597595 400.870239,581.044861 
	C404.417877,581.044861 407.493652,581.044861 410.863556,581.044861 
	C410.863556,577.612305 410.863556,574.669983 410.863556,571.228088 
	C414.228149,571.228088 417.296875,571.228088 420.856873,571.228088 
	C420.856873,567.685791 420.856873,564.611938 420.856873,561.058228 
	C424.407288,561.058228 427.472290,561.058228 430.850189,561.058228 
	C430.850189,557.626099 430.850189,554.683838 430.850189,551.241455 
	C434.215027,551.241455 437.279419,551.241455 440.843719,551.241455 
	C440.843719,547.698914 440.843719,544.626404 440.843719,541.013062 
	C444.260956,541.013062 447.200684,541.013062 450.567322,541.012939 
	C450.994263,541.012756 450.920746,540.944336 450.920746,540.944336 
z"/>
<path fill="#A1A1A1" opacity="1.000000" stroke="none" 
	d="
M300.966553,710.959961 
	C300.932312,714.062683 300.932312,717.202148 300.932312,720.670166 
	C294.388397,720.670166 288.006012,720.670166 281.309326,720.670166 
	C281.309326,714.314575 281.309326,707.937317 281.309326,701.010315 
	C284.282898,701.010315 287.217102,701.010315 290.614136,701.038940 
	C291.076935,701.067566 291.003387,700.999084 290.996399,701.426636 
	C290.989441,704.864624 290.989441,707.875061 290.989441,711.069824 
	C294.879669,711.069824 297.974731,711.069824 301.069794,711.069824 
	C301.069794,711.069824 301.000824,710.996704 300.966553,710.959961 
z"/>
<path fill="#A1A1A1" opacity="1.000000" stroke="none" 
	d="
M541.081055,451.057312 
	C541.081055,447.925354 541.081055,444.793427 541.081055,441.331482 
	C544.283325,441.331482 547.333923,441.331482 550.696350,441.331482 
	C550.696350,444.346039 550.696350,447.395172 550.696350,450.987183 
	C547.723572,450.987183 544.792419,450.987183 541.434326,450.988037 
	C541.007507,450.988922 541.081055,451.057312 541.081055,451.057312 
z"/>
<path fill="#A1A1A1" opacity="1.000000" stroke="none" 
	d="
M540.973389,450.952087 
	C540.939209,454.133759 540.939209,457.352234 540.939209,460.987183 
	C537.647644,460.987183 534.754333,460.987183 531.434326,460.988037 
	C531.007507,460.988922 531.081055,461.057312 531.081055,461.057312 
	C531.081055,457.963196 531.081055,454.869049 531.081055,451.008881 
	C534.129211,451.008881 537.141724,451.008881 540.617676,451.033081 
	C541.081055,451.057312 541.007507,450.988922 540.973389,450.952087 
z"/>
<path fill="#A1A1A1" opacity="1.000000" stroke="none" 
	d="
M530.973389,460.952087 
	C530.939209,464.053558 530.939209,467.191803 530.939209,471.016174 
	C527.865601,471.016174 524.944641,471.016174 521.610168,471.092712 
	C521.196716,471.169250 521.280151,471.241028 521.280151,471.241028 
	C521.280151,467.993195 521.280151,464.745331 521.280151,461.008881 
	C524.315063,461.008881 527.234558,461.008881 530.617554,461.033081 
	C531.081055,461.057312 531.007507,460.988922 530.973389,460.952087 
z"/>
<path fill="#A1A1A1" opacity="1.000000" stroke="none" 
	d="
M511.279388,481.240540 
	C511.279388,477.972900 511.279388,474.705261 511.279388,471.034851 
	C514.405334,471.034851 517.354675,471.034851 520.792114,471.137939 
	C521.280151,471.241028 521.196716,471.169250 521.161743,471.138123 
	C521.126831,474.204224 521.126831,477.301453 521.126831,481.016083 
	C517.824707,481.016083 514.923889,481.016083 511.609497,481.092438 
	C511.195953,481.168793 511.279388,481.240540 511.279388,481.240540 
z"/>
<path fill="#A1A1A1" opacity="1.000000" stroke="none" 
	d="
M501.279388,491.240540 
	C501.279388,487.972961 501.279388,484.705414 501.279388,481.034790 
	C504.404938,481.034790 507.354156,481.034790 510.791382,481.137665 
	C511.279388,481.240540 511.195953,481.168793 511.161011,481.137634 
	C511.126099,484.203857 511.126099,487.301208 511.126099,491.016083 
	C507.824768,491.016083 504.923889,491.016083 501.609467,491.092438 
	C501.195953,491.168793 501.279388,491.240540 501.279388,491.240540 
z"/>
<path fill="#A1A1A1" opacity="1.000000" stroke="none" 
	d="
M491.279388,501.240540 
	C491.279388,497.972961 491.279388,494.705414 491.279388,491.034790 
	C494.404938,491.034790 497.354156,491.034790 500.791382,491.137665 
	C501.279388,491.240540 501.195953,491.168793 501.161011,491.137634 
	C501.126099,494.203857 501.126099,497.301208 501.126099,501.016083 
	C497.824768,501.016083 494.923889,501.016083 491.609467,501.092438 
	C491.195953,501.168793 491.279388,501.240540 491.279388,501.240540 
z"/>
<path fill="#A1A1A1" opacity="1.000000" stroke="none" 
	d="
M481.279388,511.240540 
	C481.279388,507.972961 481.279388,504.705414 481.279388,501.034790 
	C484.404938,501.034790 487.354156,501.034790 490.791382,501.137665 
	C491.279388,501.240540 491.195953,501.168793 491.161011,501.137634 
	C491.126099,504.203857 491.126099,507.301208 491.126099,511.016083 
	C487.824768,511.016083 484.923889,511.016083 481.609467,511.092438 
	C481.195953,511.168793 481.279388,511.240540 481.279388,511.240540 
z"/>
<path fill="#A1A1A1" opacity="1.000000" stroke="none" 
	d="
M471.279236,521.240234 
	C471.279236,517.972900 471.279236,514.705566 471.279236,511.034790 
	C474.405029,511.034790 477.354187,511.034790 480.791382,511.137665 
	C481.279388,511.240540 481.195953,511.168793 481.161011,511.137634 
	C481.126099,514.205200 481.126099,517.303955 481.126099,521.016052 
	C477.824707,521.016052 474.923828,521.016052 471.609375,521.092285 
	C471.195831,521.168518 471.279236,521.240234 471.279236,521.240234 
z"/>
<path fill="#A1A1A1" opacity="1.000000" stroke="none" 
	d="
M461.279236,531.240234 
	C461.279236,527.972900 461.279236,524.705566 461.279236,521.034790 
	C464.404999,521.034790 467.354126,521.034790 470.791260,521.137512 
	C471.279236,521.240234 471.195831,521.168518 471.160889,521.137329 
	C471.125977,524.203613 471.125977,527.301025 471.125977,531.016052 
	C467.824768,531.016052 464.923859,531.016052 461.609375,531.092285 
	C461.195831,531.168518 461.279236,531.240234 461.279236,531.240234 
z"/>
<path fill="#A1A1A1" opacity="1.000000" stroke="none" 
	d="
M451.028381,541.049561 
	C451.062500,537.967957 451.062500,534.849487 451.062500,531.034790 
	C454.207062,531.034790 457.255249,531.034790 460.791351,531.137512 
	C461.279236,531.240234 461.195831,531.168518 461.160889,531.137329 
	C461.125977,534.224915 461.125977,537.343628 461.125977,540.991333 
	C457.719299,540.991333 454.783142,540.991333 451.383850,540.967834 
	C450.920746,540.944336 450.994263,541.012756 451.028381,541.049561 
z"/>
<path fill="#000000" opacity="1.000000" stroke="none" 
	d="
M301.040161,710.607910 
	C297.974731,711.069824 294.879669,711.069824 290.989441,711.069824 
	C290.989441,707.875061 290.989441,704.864624 290.959839,701.392212 
	C294.025452,700.930176 297.120697,700.930176 301.010559,700.930176 
	C301.010559,704.124939 301.010559,707.135437 301.040161,710.607910 
z"/>
</svg>